<svg width="14" height="14" viewBox="0 0 14 14" fill="none" xmlns="http://www.w3.org/2000/svg">
<path d="M9.58017 9.1666L7.3335 7.83326V4.81326C7.3335 4.5466 7.12017 4.33326 6.8535 4.33326H6.8135C6.54683 4.33326 6.3335 4.5466 6.3335 4.81326V7.95993C6.3335 8.19326 6.4535 8.41326 6.66017 8.53326L9.0935 9.99326C9.32017 10.1266 9.6135 10.0599 9.74683 9.83326C9.88683 9.59993 9.8135 9.29993 9.58017 9.1666ZM13.1202 2.33993L11.0668 0.633264C10.7868 0.399931 10.3668 0.433264 10.1268 0.719931C9.8935 0.999931 9.9335 1.41993 10.2135 1.65993L12.2602 3.3666C12.5402 3.59993 12.9602 3.5666 13.2002 3.27993C13.4402 2.99993 13.4002 2.57993 13.1202 2.33993ZM1.7335 3.3666L3.78017 1.65993C4.06683 1.41993 4.10683 0.999931 3.86683 0.719931C3.6335 0.433264 3.2135 0.399931 2.9335 0.633264L0.880167 2.33993C0.600167 2.57993 0.560167 2.99993 0.800167 3.27993C1.0335 3.5666 1.4535 3.59993 1.7335 3.3666ZM7.00017 1.6666C3.68683 1.6666 1.00017 4.35326 1.00017 7.6666C1.00017 10.9799 3.68683 13.6666 7.00017 13.6666C10.3135 13.6666 13.0002 10.9799 13.0002 7.6666C13.0002 4.35326 10.3135 1.6666 7.00017 1.6666ZM7.00017 12.3333C4.42683 12.3333 2.3335 10.2399 2.3335 7.6666C2.3335 5.09326 4.42683 2.99993 7.00017 2.99993C9.5735 2.99993 11.6668 5.09326 11.6668 7.6666C11.6668 10.2399 9.5735 12.3333 7.00017 12.3333Z" fill="#4E3B95"/>
</svg>
