<svg width="10" height="6" viewBox="0 0 10 6" fill="none" xmlns="http://www.w3.org/2000/svg">
<path d="M0.768213 0.351875C0.842224 0.277712 0.930135 0.218874 1.02691 0.178729C1.12369 0.138584 1.22744 0.11792 1.33221 0.11792C1.43699 0.11792 1.54073 0.138584 1.63751 0.178729C1.73429 0.218874 1.8222 0.277712 1.89621 0.351875L5.00021 3.45587L8.10421 0.351875C8.2538 0.202293 8.45667 0.118259 8.66821 0.118259C8.87975 0.118259 9.08263 0.202293 9.23221 0.351875C9.3818 0.501457 9.46583 0.704334 9.46583 0.915875C9.46583 1.12742 9.3818 1.33029 9.23221 1.47988L5.56021 5.15188C5.4862 5.22604 5.39829 5.28488 5.30151 5.32502C5.20473 5.36517 5.10099 5.38583 4.99621 5.38583C4.89144 5.38583 4.78769 5.36517 4.69091 5.32502C4.59413 5.28488 4.50622 5.22604 4.43221 5.15188L0.760213 1.47988C0.456213 1.17588 0.456213 0.663875 0.768213 0.351875Z" fill="#959595"/>
</svg>
