<svg width="9" height="14" viewBox="0 0 9 14" fill="none" xmlns="http://www.w3.org/2000/svg">
<path d="M1.02788 13.3479C0.916637 13.2369 0.82838 13.105 0.768162 12.9599C0.707945 12.8147 0.676948 12.6591 0.676948 12.5019C0.676948 12.3448 0.707945 12.1891 0.768162 12.044C0.82838 11.8988 0.916637 11.7669 1.02788 11.6559L5.68388 6.99992L1.02788 2.34392C0.803507 2.11955 0.677456 1.81524 0.677456 1.49793C0.677456 1.18061 0.803507 0.876296 1.02788 0.651923C1.25225 0.42755 1.55657 0.3015 1.87388 0.3015C2.19119 0.3015 2.49551 0.42755 2.71988 0.651923L8.22788 6.15992C8.33913 6.27094 8.42738 6.40281 8.4876 6.54797C8.54782 6.69314 8.57881 6.84876 8.57881 7.00592C8.57881 7.16309 8.54782 7.31871 8.4876 7.46387C8.42738 7.60904 8.33913 7.74091 8.22788 7.85192L2.71988 13.3599C2.26388 13.8159 1.49588 13.8159 1.02788 13.3479Z" fill="#959595"/>
</svg>
