<svg width="7" height="12" viewBox="0 0 7 12" fill="none" xmlns="http://www.w3.org/2000/svg">
<path d="M6.31009 0.710022C6.4028 0.802536 6.47635 0.912424 6.52653 1.0334C6.57671 1.15437 6.60254 1.28405 6.60254 1.41502C6.60254 1.54599 6.57671 1.67567 6.52653 1.79665C6.47635 1.91762 6.4028 2.02751 6.31009 2.12002L2.4301 6.00002L6.31009 9.88002C6.49707 10.067 6.60212 10.3206 6.60212 10.585C6.60212 10.8494 6.49707 11.103 6.31009 11.29C6.12312 11.477 5.86952 11.582 5.60509 11.582C5.34067 11.582 5.08707 11.477 4.90009 11.29L0.310095 6.70002C0.217391 6.60751 0.143844 6.49762 0.0936623 6.37665C0.0434809 6.25567 0.0176516 6.12599 0.0176516 5.99502C0.0176516 5.86405 0.0434809 5.73437 0.0936623 5.6134C0.143844 5.49242 0.217391 5.38254 0.310095 5.29002L4.90009 0.700022C5.28009 0.320022 5.92009 0.320022 6.31009 0.710022Z" fill="#959595"/>
</svg>
