<svg width="32" height="33" viewBox="0 0 32 33" fill="none" xmlns="http://www.w3.org/2000/svg">
<g clip-path="url(#clip0_5025_7796)">
<path d="M24.4 8.11329C23.88 7.59329 23.04 7.59329 22.52 8.11329L16 14.62L9.48002 8.09996C8.96002 7.57996 8.12002 7.57996 7.60002 8.09996C7.08002 8.61996 7.08002 9.45996 7.60002 9.97996L14.12 16.5L7.60002 23.02C7.08002 23.54 7.08002 24.38 7.60002 24.9C8.12002 25.42 8.96002 25.42 9.48002 24.9L16 18.38L22.52 24.9C23.04 25.42 23.88 25.42 24.4 24.9C24.92 24.38 24.92 23.54 24.4 23.02L17.88 16.5L24.4 9.97996C24.9067 9.47329 24.9067 8.61996 24.4 8.11329Z" fill="#CB211F"/>
</g>
<defs>
<clipPath id="clip0_5025_7796">
<rect width="32" height="32" fill="white" transform="translate(0 0.5)"/>
</clipPath>
</defs>
</svg>
