<svg width="15" height="14" viewBox="0 0 15 14" fill="none" xmlns="http://www.w3.org/2000/svg">
<g clip-path="url(#clip0_4648_7103)">
<path d="M9.25008 0.583252H2.83341C2.19175 0.583252 1.66675 1.10825 1.66675 1.74992V9.33325C1.66675 9.65409 1.92925 9.91658 2.25008 9.91658C2.57091 9.91658 2.83341 9.65409 2.83341 9.33325V2.33325C2.83341 2.01242 3.09591 1.74992 3.41675 1.74992H9.25008C9.57091 1.74992 9.83341 1.48742 9.83341 1.16659C9.83341 0.845752 9.57091 0.583252 9.25008 0.583252ZM11.5834 2.91659H5.16675C4.52508 2.91659 4.00008 3.44159 4.00008 4.08325V12.2499C4.00008 12.8916 4.52508 13.4166 5.16675 13.4166H11.5834C12.2251 13.4166 12.7501 12.8916 12.7501 12.2499V4.08325C12.7501 3.44159 12.2251 2.91659 11.5834 2.91659ZM11.0001 12.2499H5.75008C5.42925 12.2499 5.16675 11.9874 5.16675 11.6666V4.66658C5.16675 4.34575 5.42925 4.08325 5.75008 4.08325H11.0001C11.3209 4.08325 11.5834 4.34575 11.5834 4.66658V11.6666C11.5834 11.9874 11.3209 12.2499 11.0001 12.2499Z" fill="#606060"/>
</g>
<defs>
<clipPath id="clip0_4648_7103">
<rect width="14" height="14" fill="white" transform="translate(0.5)"/>
</clipPath>
</defs>
</svg>
