<svg width="20" height="20" viewBox="0 0 20 20" fill="none" xmlns="http://www.w3.org/2000/svg">
<path d="M9.9999 0.399902C15.3039 0.399902 19.5999 4.6959 19.5999 9.9999C19.5999 15.3039 15.3039 19.5999 9.9999 19.5999C4.6959 19.5999 0.399902 15.3039 0.399902 9.9999C0.399902 4.6959 4.6959 0.399902 9.9999 0.399902ZM11.1999 5.1999C11.1999 4.5399 10.6599 3.9999 9.9999 3.9999C9.3399 3.9999 8.7999 4.5399 8.7999 5.1999C8.7999 5.8599 9.3399 6.3999 9.9999 6.3999C10.6599 6.3999 11.1999 5.8599 11.1999 5.1999ZM11.1999 15.9999V8.7999H8.7999V15.9999H11.1999Z" fill="#D54D4C"/>
</svg>
