<svg width="79" height="40" viewBox="0 0 79 40" fill="none" xmlns="http://www.w3.org/2000/svg">
<path fill-rule="evenodd" clip-rule="evenodd" d="M19.9991 9.44312H59.3915L64.8887 11.4421L67.759 9.69073L69.5214 12.5792L65.2618 15.1783L58.7953 12.8268H20.7254L15.45 15.2007L10.7812 12.615L12.4206 9.65495L15.6069 11.4196L19.9991 9.44312Z" fill="#EC742E"/>
<rect x="33.5947" y="2.91748" width="13.0514" height="48.8218" fill="#2E1783"/>
<path d="M48.5805 -1.1914C44.4567 6.66358 44.7932 6.66358 40.1213 6.66358C35.4494 6.66358 35.786 6.66358 31.6621 -1.1914C31.6621 -5.52959 35.4494 -9.04639 40.1213 -9.04639C44.7932 -9.04639 48.5805 -5.52959 48.5805 -1.1914Z" fill="#EC742E"/>
<rect x="29.2451" y="1.46729" width="21.7523" height="6.0423" fill="#FDBF2D"/>
<path fill-rule="evenodd" clip-rule="evenodd" d="M15.4735 15.1003L6.85603 34.0958H24.1373L15.4735 15.1003ZM24.9561 37.4795H6.2764C6.33809 37.7182 6.40955 37.9569 6.49469 38.1933C6.8164 39.0866 7.24366 39.6745 7.80633 39.9746C8.80897 40.5093 10.3097 40.7906 12.5621 40.8718C14.3625 40.9368 16.4628 40.873 18.9451 40.7976C19.541 40.7796 20.159 40.7608 20.8001 40.743C22.826 40.6867 23.8299 39.8281 24.3877 38.9105C24.6651 38.454 24.8462 37.9546 24.9561 37.4795ZM13.8189 10.5572C14.4617 9.14038 16.4733 9.13834 17.1189 10.5539L28.4266 35.3462L28.4531 35.6313C28.5699 36.8906 28.3559 38.8964 27.2792 40.6679C26.136 42.5488 24.0886 44.0366 20.894 44.1254C20.2842 44.1423 19.6869 44.1605 19.1032 44.1783C16.6103 44.2543 14.3642 44.3227 12.4401 44.2533C10.0852 44.1684 7.93041 43.8756 6.21401 42.9602C4.60145 42.1002 3.76991 40.6136 3.31115 39.3397C2.91705 38.2454 2.7319 37.1065 2.61328 36.3769C2.59517 36.2655 2.57861 36.1636 2.56309 36.0729L2.47559 35.5613L13.8189 10.5572Z" fill="#FDBF2D"/>
<path d="M22.2971 44.0052C28.6415 42.7363 28.6703 36.299 28.4603 34.0354H2.47841C2.17622 36.0294 2.96827 40.8106 5.31826 42.4342C8.64152 44.7303 15.1243 45.4398 22.2971 44.0052Z" fill="#2E1783"/>
<path fill-rule="evenodd" clip-rule="evenodd" d="M64.536 15.1003L55.9185 34.0958H73.1998L64.536 15.1003ZM74.0186 37.4795H55.3389C55.4006 37.7182 55.4721 37.9569 55.5572 38.1933C55.8789 39.0866 56.3062 39.6745 56.8688 39.9746C57.8715 40.5093 59.3722 40.7906 61.6246 40.8718C63.425 40.9368 65.5253 40.873 68.0076 40.7976C68.6035 40.7796 69.2215 40.7608 69.8626 40.743C71.8885 40.6867 72.8924 39.8281 73.4502 38.9105C73.7276 38.454 73.9087 37.9546 74.0186 37.4795ZM62.8814 10.5572C63.5242 9.14038 65.5358 9.13834 66.1814 10.5539L77.4891 35.3462L77.5156 35.6313C77.6324 36.8906 77.4184 38.8964 76.3417 40.6679C75.1985 42.5488 73.1511 44.0366 69.9565 44.1254C69.3467 44.1423 68.7494 44.1605 68.1657 44.1783C65.6728 44.2543 63.4267 44.3227 61.5026 44.2533C59.1477 44.1684 56.9929 43.8756 55.2765 42.9602C53.664 42.1002 52.8324 40.6136 52.3737 39.3397C51.9796 38.2454 51.7944 37.1065 51.6758 36.3769C51.6577 36.2655 51.6411 36.1636 51.6256 36.0729L51.5381 35.5613L62.8814 10.5572Z" fill="#FDBF2D"/>
<path d="M71.3596 44.0052C77.704 42.7363 77.7328 36.299 77.5228 34.0354H51.5409C51.2387 36.0294 52.0308 40.8106 54.3808 42.4342C57.704 44.7303 64.1868 45.4398 71.3596 44.0052Z" fill="#2E1783"/>
</svg>
