<svg width="56" height="56" viewBox="0 0 56 56" fill="none" xmlns="http://www.w3.org/2000/svg">
<g clip-path="url(#clip0_5060_9781)">
<path d="M1.81934 54.0103L5.51246 40.5014C3.2419 36.5338 2.05075 32.0405 2.05769 27.4692C2.03041 13.0585 13.6626 1.35449 27.9598 1.35449C34.8967 1.35449 41.4113 4.06116 46.3178 8.99777C51.2243 13.9344 53.9137 20.4893 53.9137 27.4692C53.9137 41.854 42.2829 53.5594 27.9857 53.5594C23.6506 53.565 19.3851 52.4691 15.5896 50.3746L1.81934 54.0103ZM16.197 45.6763L16.9882 46.1545C20.3071 48.1317 24.098 49.1769 27.9613 49.1799C39.8304 49.1799 49.5112 39.4388 49.5112 27.4964C49.5112 21.7098 47.2698 16.2433 43.2076 12.1553C39.1426 8.07018 33.7092 5.78711 27.9584 5.78711C16.062 5.78711 6.38118 15.5282 6.38118 27.4706C6.38118 31.5586 7.51554 35.5662 9.67944 39.0152L10.1806 39.8394L7.99082 47.8546L16.1941 45.6778L16.197 45.6763Z" fill="white"/>
<path d="M2.7168 53.1065L6.27782 40.0499C4.08201 36.2205 2.92706 31.8829 2.92787 27.4686C2.92787 13.5892 14.1652 2.28296 27.9599 2.28296C34.6598 2.28296 40.9375 4.91065 45.6846 9.6606C48.0175 12.0012 49.866 14.7788 51.1243 17.8345C52.3826 20.8902 53.026 24.164 53.0177 27.4686C53.0177 41.3494 41.7818 52.6557 27.9857 52.6557C23.7929 52.6557 19.6776 51.5931 16.0103 49.5771L2.7168 53.1065Z" fill="url(#paint0_linear_5060_9781)"/>
<path d="M1.81934 54.0103L5.51246 40.5014C3.2419 36.5338 2.05075 32.0405 2.05769 27.4692C2.03041 13.0585 13.6626 1.35449 27.9598 1.35449C34.8967 1.35449 41.4113 4.06116 46.3178 8.99777C51.2243 13.9344 53.9137 20.4893 53.9137 27.4692C53.9137 41.854 42.2829 53.5594 27.9857 53.5594C23.6506 53.565 19.3851 52.4691 15.5896 50.3746L1.81934 54.0103V54.0103ZM16.197 45.6763L16.9882 46.1545C20.3071 48.1317 24.098 49.1769 27.9613 49.1799C39.8304 49.1799 49.5112 39.4388 49.5112 27.4964C49.5112 21.7098 47.2698 16.2433 43.2076 12.1553C39.1426 8.07018 33.7092 5.78711 27.9584 5.78711C16.062 5.78711 6.38118 15.5282 6.38118 27.4706C6.38118 31.5586 7.51554 35.5662 9.67944 39.0152L10.1806 39.8394L7.99082 47.8546L16.1941 45.6778L16.197 45.6763Z" fill="url(#paint1_linear_5060_9781)"/>
<path fill-rule="evenodd" clip-rule="evenodd" d="M21.4967 16.5339C21.0229 15.4455 20.4945 15.4196 20.0465 15.4196C19.6502 15.3923 19.228 15.3923 18.78 15.3923C18.3579 15.3923 17.6457 15.5517 17.0397 16.2151C16.4323 16.8785 14.771 18.4451 14.771 21.6572C14.771 24.8678 17.0928 27.9737 17.4087 28.3973C17.7246 28.8223 21.893 35.6169 28.4867 38.2446C33.9733 40.42 35.0818 39.9964 36.2693 39.8629C37.4553 39.7308 40.093 38.2978 40.6473 36.7571C41.1743 35.2451 41.1743 33.9183 41.0163 33.6526C40.8584 33.387 40.4089 33.2276 39.7757 32.883C39.1166 32.5642 35.9519 30.9733 35.3445 30.7593C34.7386 30.5468 34.3164 30.4405 33.8943 31.0781C33.4721 31.7415 32.2329 33.2018 31.8366 33.6254C31.4676 34.0504 31.0727 34.1035 30.4395 33.7847C29.779 33.4674 27.6969 32.7767 25.2157 30.5468C23.2916 28.8223 21.9993 26.6727 21.603 26.0352C21.234 25.3718 21.5499 25.0272 21.893 24.7084C22.1831 24.4169 22.5536 23.9388 22.8695 23.5669C23.1854 23.195 23.2902 22.9035 23.5285 22.4785C23.7396 22.0549 23.6334 21.6557 23.4754 21.3384C23.3175 21.0455 22.0768 17.8348 21.4967 16.5339Z" fill="white"/>
</g>
<defs>
<linearGradient id="paint0_linear_5060_9781" x1="27.8622" y1="53.1037" x2="27.8622" y2="2.27291" gradientUnits="userSpaceOnUse">
<stop stop-color="#20B038"/>
<stop offset="1" stop-color="#60D66A"/>
</linearGradient>
<linearGradient id="paint1_linear_5060_9781" x1="27.8622" y1="54.016" x2="27.8622" y2="1.36167" gradientUnits="userSpaceOnUse">
<stop stop-color="#F9F9F9"/>
<stop offset="1" stop-color="white"/>
</linearGradient>
<clipPath id="clip0_5060_9781">
<rect width="56" height="56" fill="white"/>
</clipPath>
</defs>
</svg>
